<?xml version="1.0" encoding="utf-8"?>
<svg xmlns="http://www.w3.org/2000/svg" viewBox="0 0 540 449" fill="none">
    <g clip-path="url(#clip0_0_1)">
        <path d="M424.7 30.5L420.28 29.57C419.34 29.4 418.33 29.52 417.38 30.02L312.15 84.99C309.29 86.48 307.5 89.44 307.5 92.66V124.2C307.5 126.4 309.02 128.09 310.9 128.59L311.09 128.64C311.17 128.66 311.25 128.68 311.33 128.69L316 129.63L318.66 125.87L421.58 72.09C423.08 71.31 424.01 69.76 424.01 68.07V34.04C424.01 33.7 423.96 33.37 423.89 33.05L424.69 30.51L424.7 30.5Z" fill="#2E365E" stroke="#2E365E" stroke-miterlimit="10"/>
        <path d="M317.15 85.99L422.38 31.02C425.4 29.44 429.01 31.63 429.01 35.04V69.07C429.01 70.76 428.07 72.31 426.58 73.09L319.13 129.21C316.11 130.79 312.5 128.6 312.5 125.19V93.65C312.5 90.43 314.29 87.47 317.15 85.98V85.99Z" fill="#F8BBEC" stroke="#2E365E" stroke-miterlimit="10"/>
        <path d="M353.26 92.24L353.24 86.29L354.46 85.65C355.48 85.12 355.72 85.42 355.72 86.2V89.74C355.73 90.52 355.49 91.08 354.48 91.61L353.26 92.25M354.7 83.55L351.2 85.38L351.23 95.28L354.73 93.45C356.96 92.28 357.78 90.61 357.77 89.29V84.53C357.75 83.19 356.93 82.39 354.7 83.55Z" fill="#2E365E"/>
        <path d="M361.52 86.1L362.55 81.41L363.59 85.02L361.52 86.11M363.9 78.74L361.19 80.16L358.46 91.51L360.57 90.4L361.05 88.22L364.07 86.64L364.56 88.31L366.68 87.2L363.88 78.74" fill="#2E365E"/>
        <path d="M373.18 73.88L366.3 77.48V79.46L368.72 78.19L368.75 86.12L370.78 85.05L370.76 77.13L373.18 75.86V73.88Z" fill="#2E365E"/>
        <path d="M375.89 78.58L376.92 73.89L377.96 77.5L375.89 78.58ZM378.27 71.21L375.56 72.63L372.83 83.98L374.94 82.87L375.42 80.69L378.44 79.11L378.93 80.78L381.05 79.67L378.25 71.21" fill="#2E365E"/>
        <path d="M384.75 73.97L384.84 71.78L386.77 70.77L386.68 72.96L384.75 73.97ZM388.33 66.25L386.93 66.98L386.83 69.31L384.9 70.32L385 67.99L383.6 68.72L383.5 71.05L381.85 71.91L381.79 73.37L383.44 72.51L383.35 74.7L381.74 75.54L381.68 77.01L383.31 76.16L383.21 78.55L384.6 77.82L384.71 75.43L386.64 74.42L386.53 76.81L387.93 76.08L388.03 73.69L389.6 72.87L389.66 71.4L388.07 72.23L388.16 70.04L389.71 69.23L389.77 67.77L388.22 68.58L388.32 66.25" fill="#2E365E"/>
        <path d="M394.97 62.78L393.21 63.7L390.65 66.66L391.5 67.99L393.03 66.28L393.05 73.4L395 72.38L394.97 62.78Z" fill="#2E365E"/>
        <path d="M330.28 88.37C324.34 90.23 319.42 97.22 319.3 103.98C319.18 110.74 323.9 114.72 329.84 112.86C335.78 111 340.71 104.01 340.83 97.25C340.95 90.49 336.23 86.51 330.28 88.37Z" fill="#2E365E"/>
    </g>
    <g filter="url(#filter0_d_0_1)">
        <path d="M215.815 231.701C221.044 231.701 226.015 232.272 230.528 233.302L195.754 267.743C185.506 264.261 178.706 258.19 178.706 251.278C178.706 240.467 195.319 231.701 215.815 231.701Z" fill="#FFACCF"/>
        <path d="M217.096 226.226C242.739 226.584 263.318 237.664 263.318 251.278C263.318 264.892 242.049 276.338 215.814 276.338C193.762 276.338 175.219 268.411 169.87 257.66C172.974 263.884 180.504 269.165 190.576 272.505L193.71 269.385C200.078 271.553 207.669 272.815 215.814 272.815C238.361 272.815 256.634 263.172 256.634 251.282C256.634 242.378 246.394 234.738 231.786 231.458L234.92 228.338C229.44 227.066 223.423 226.319 217.092 226.23L217.096 226.226Z" fill="#7F6CFA"/>
        <path d="M215.815 226.215C215.92 226.215 216.025 226.215 216.129 226.215C216.583 226.215 216.677 226.215 216.767 226.219C216.89 226.219 216.988 226.219 217.085 226.222C223.428 226.312 229.444 227.058 234.924 228.331L231.79 231.451C226.884 230.35 221.486 229.738 215.815 229.738C193.268 229.738 174.998 239.381 174.998 251.274C174.998 258.869 182.45 265.545 193.71 269.382L190.577 272.501C178.154 268.381 169.593 261.313 168.442 253.152C168.431 253.07 168.424 253.014 168.416 252.958C168.397 252.793 168.382 252.663 168.371 252.532C168.364 252.443 168.36 252.394 168.356 252.342C168.349 252.237 168.345 252.189 168.341 252.137C168.334 252.032 168.33 251.965 168.326 251.901C168.326 251.819 168.319 251.767 168.319 251.711C168.319 251.607 168.315 251.558 168.315 251.513C168.315 251.394 168.315 251.33 168.315 251.267C168.315 237.425 189.583 226.204 215.818 226.204L215.815 226.215Z" fill="#6C54FB"/>
        <path d="M193.71 269.385C194.306 269.587 194.914 269.785 195.532 269.971C195.944 270.094 196.36 270.218 196.78 270.333C198.044 270.684 199.344 271.001 200.682 271.285C201.575 271.471 202.482 271.643 203.4 271.8C204.551 271.994 205.724 272.162 206.916 272.3C207.872 272.412 208.839 272.505 209.817 272.584C211.774 272.737 213.776 272.815 215.811 272.815C217.846 272.815 220.002 272.729 222.026 272.569C222.7 272.513 223.371 272.449 224.035 272.378C224.368 272.341 224.698 272.304 225.028 272.263C238.526 270.621 249.46 265.444 254.153 258.682C255.758 256.372 256.631 253.879 256.631 251.278C256.631 250.442 256.541 249.621 256.365 248.811C256.249 248.27 256.095 247.737 255.904 247.211C255.761 246.815 255.596 246.423 255.413 246.035C254.738 244.613 253.797 243.251 252.62 241.956C252.298 241.605 251.96 241.254 251.604 240.915C251.248 240.571 250.873 240.236 250.487 239.907C249.966 239.467 249.419 239.038 248.842 238.62C248.553 238.411 248.257 238.205 247.957 238C246.447 236.985 244.767 236.041 242.942 235.183C239.654 233.638 235.891 232.373 231.787 231.451C226.88 230.35 221.482 229.738 215.811 229.738C193.264 229.738 174.995 239.381 174.995 251.275C174.995 258.869 182.446 265.545 193.707 269.382L193.71 269.385ZM215.815 230.671C237.39 230.671 254.877 239.896 254.877 251.278C254.877 262.66 237.39 271.886 215.815 271.886C194.239 271.886 176.753 262.66 176.753 251.278C176.753 239.896 194.243 230.671 215.815 230.671Z" fill="#3D27C1"/>
        <path d="M215.814 230.671C237.39 230.671 254.876 239.896 254.876 251.278C254.876 262.66 237.39 271.886 215.814 271.886C194.238 271.886 176.752 262.66 176.752 251.278C176.752 239.896 194.242 230.671 215.814 230.671ZM195.753 267.743L230.526 233.302C226.013 232.272 221.043 231.701 215.814 231.701C195.318 231.701 178.705 240.467 178.705 251.278C178.705 258.19 185.501 264.261 195.753 267.743Z" fill="#FF7FB4"/>
        <path d="M215.815 226.051C242.222 226.051 263.629 237.347 263.629 251.278C263.629 265.209 242.222 276.506 215.815 276.506C189.407 276.506 168 265.209 168 251.278C168 237.347 189.407 226.051 215.815 226.051ZM215.815 276.338C242.05 276.338 263.318 265.12 263.318 251.278C263.318 237.437 242.736 226.584 217.096 226.226C216.024 226.219 215.919 226.219 215.815 226.219C189.58 226.215 168.311 237.437 168.311 251.278C168.311 251.342 168.311 251.405 168.311 251.468C168.326 251.976 168.33 252.039 168.334 252.103C168.379 252.67 168.394 252.801 168.409 252.928C168.42 253.021 168.427 253.077 168.435 253.133C170.26 266.12 190.772 276.338 215.811 276.338H215.815Z" fill="#624DE0"/>
        <path d="M263.629 251.278V265.661C263.629 269.684 261.845 273.487 258.67 276.856C255.064 280.7 249.648 283.984 243.02 286.406C238.946 287.899 234.41 289.063 229.549 289.828C226.591 290.299 223.514 290.62 220.339 290.773C218.847 290.847 217.34 290.888 215.815 290.888C215.406 290.888 214.997 290.885 214.589 290.877C209.094 290.81 203.823 290.246 198.939 289.276C195.911 288.675 193.032 287.91 190.337 287.018C187.012 285.914 183.964 284.593 181.262 283.107C176.172 280.297 172.296 276.868 170.092 273.057C168.731 270.706 168 268.225 168 265.657V251.274C168 253.846 168.727 256.327 170.088 258.664C172.292 262.478 176.168 265.907 181.258 268.717C183.961 270.206 187.008 271.524 190.333 272.628C193.028 273.524 195.911 274.285 198.936 274.886C203.82 275.856 209.09 276.42 214.585 276.487C214.994 276.494 215.402 276.498 215.811 276.498C217.34 276.498 218.847 276.461 220.335 276.383C223.506 276.23 226.584 275.909 229.545 275.438C234.407 274.677 238.942 273.509 243.017 272.016C249.644 269.59 255.06 266.306 258.666 262.463C261.841 259.089 263.625 255.286 263.625 251.267L263.629 251.278Z" fill="#3D27C1"/>
        <path d="M181.259 268.717V283.096C176.168 280.286 172.292 276.856 170.088 273.046V258.664C172.292 262.478 176.168 265.907 181.259 268.717Z" fill="#7F6CFA"/>
        <path d="M214.589 276.491V290.87C209.093 290.803 203.823 290.239 198.939 289.269V274.89C203.823 275.86 209.093 276.424 214.589 276.491Z" fill="#5E4BD0"/>
        <path d="M258.67 262.47V276.853C255.064 280.697 249.648 283.981 243.021 286.403V272.024C249.648 269.598 255.064 266.314 258.67 262.47Z" fill="#5E4BD0"/>
        <path d="M229.549 275.446V289.821C226.591 290.291 223.514 290.612 220.339 290.765V276.386C223.51 276.233 226.587 275.912 229.549 275.442V275.446Z" fill="#5E4BD0"/>
        <path opacity="0.24" d="M259.108 262.881C255.469 266.762 249.973 270.12 243.226 272.587C239.047 274.117 234.474 275.278 229.642 276.035C226.613 276.517 223.491 276.838 220.369 276.987C219.293 277.043 218.191 277.073 217.085 277.088V290.265C218.168 290.25 219.252 290.22 220.309 290.168C223.39 290.019 226.463 289.705 229.451 289.231C234.208 288.485 238.702 287.343 242.806 285.839C249.377 283.439 254.708 280.193 258.224 276.442C261.406 273.065 263.022 269.437 263.022 265.661V257.077C262.167 259.081 260.859 261.022 259.108 262.884V262.881Z" fill="#B7ABFF"/>
        <path d="M258.264 268.728C258.264 265.709 257.616 265.064 254.583 265.064C257.616 265.064 258.264 264.418 258.264 261.399C258.264 264.418 258.913 265.064 261.945 265.064C258.913 265.064 258.264 265.709 258.264 268.728Z" fill="#B7ABFF"/>
        <path d="M254.584 272.012C254.584 270.18 254.19 269.785 252.346 269.785C254.187 269.785 254.584 269.393 254.584 267.557C254.584 269.389 254.978 269.785 256.822 269.785C254.981 269.785 254.584 270.176 254.584 272.012Z" fill="#B7ABFF"/>
        <path d="M259.307 273.199C259.307 271.848 259.015 271.557 257.658 271.557C259.015 271.557 259.307 271.266 259.307 269.915C259.307 271.266 259.599 271.557 260.956 271.557C259.599 271.557 259.307 271.848 259.307 273.199Z" fill="#B7ABFF"/>
        <path d="M170.931 266.142C170.931 263.993 170.47 263.534 168.311 263.534C170.47 263.534 170.931 263.075 170.931 260.925C170.931 263.075 171.392 263.534 173.551 263.534C171.396 263.534 170.931 263.993 170.931 266.142Z" fill="#B7ABFF"/>
    </g>
    <g filter="url(#filter1_d_0_1)">
        <path d="M344.186 277.491C349.415 277.491 354.385 278.062 358.898 279.092L324.124 313.533C313.876 310.051 307.077 303.98 307.077 297.068C307.077 286.257 323.69 277.491 344.186 277.491Z" fill="#FFACCF"/>
        <path d="M345.467 272.012C371.11 272.371 391.689 283.451 391.689 297.065C391.689 310.678 370.42 322.124 344.185 322.124C322.133 322.124 303.59 314.198 298.241 303.446C301.345 309.671 308.875 314.951 318.947 318.291L322.081 315.172C328.45 317.34 336.04 318.601 344.185 318.601C366.732 318.601 385.005 308.958 385.005 297.068C385.005 288.164 374.765 280.525 360.157 277.245L363.291 274.125C357.811 272.852 351.795 272.106 345.464 272.016L345.467 272.012Z" fill="#7F6CFA"/>
        <path d="M344.185 272.005C344.29 272.005 344.395 272.005 344.5 272.005C344.954 272.005 345.047 272.005 345.137 272.009C345.261 272.009 345.358 272.009 345.456 272.012C351.798 272.102 357.818 272.848 363.295 274.121L360.161 277.241C355.254 276.14 349.857 275.528 344.185 275.528C321.639 275.528 303.369 285.171 303.369 297.064C303.369 304.659 310.821 311.335 322.081 315.172L318.947 318.291C306.525 314.171 297.964 307.103 296.813 298.942C296.802 298.86 296.794 298.804 296.787 298.748C296.768 298.583 296.753 298.453 296.742 298.322C296.734 298.233 296.731 298.184 296.727 298.132C296.719 298.027 296.716 297.979 296.712 297.927C296.704 297.822 296.701 297.755 296.697 297.691C296.697 297.609 296.689 297.557 296.689 297.501C296.689 297.397 296.686 297.348 296.686 297.303C296.686 297.184 296.686 297.12 296.686 297.057C296.686 283.215 317.954 271.994 344.189 271.994L344.185 272.005Z" fill="#6C54FB"/>
        <path d="M322.077 315.172C322.673 315.377 323.28 315.571 323.899 315.757C324.311 315.881 324.727 316.004 325.147 316.119C326.41 316.47 327.711 316.787 329.049 317.071C329.941 317.258 330.848 317.429 331.767 317.586C332.917 317.78 334.091 317.948 335.283 318.086C336.239 318.198 337.206 318.291 338.184 318.37C340.141 318.523 342.142 318.601 344.178 318.601C346.213 318.601 348.368 318.515 350.392 318.355C351.067 318.299 351.738 318.235 352.402 318.164C352.735 318.127 353.065 318.09 353.395 318.049C366.893 316.407 377.827 311.231 382.52 304.468C384.124 302.158 384.998 299.666 384.998 297.064C384.998 296.229 384.908 295.408 384.732 294.598C384.615 294.057 384.462 293.523 384.27 292.997C384.128 292.601 383.963 292.209 383.779 291.821C383.105 290.399 382.164 289.037 380.987 287.742C380.665 287.391 380.327 287.041 379.971 286.701C379.615 286.358 379.24 286.022 378.854 285.693C378.333 285.253 377.786 284.824 377.208 284.406C376.92 284.197 376.624 283.992 376.324 283.786C374.813 282.771 373.134 281.827 371.309 280.969C368.021 279.424 364.258 278.159 360.153 277.237C355.247 276.136 349.849 275.524 344.178 275.524C321.631 275.524 303.361 285.167 303.361 297.061C303.361 304.655 310.813 311.331 322.073 315.168L322.077 315.172ZM344.181 276.457C365.757 276.457 383.243 285.682 383.243 297.064C383.243 308.447 365.757 317.672 344.181 317.672C322.606 317.672 305.119 308.447 305.119 297.064C305.119 285.682 322.609 276.457 344.181 276.457Z" fill="#3D27C1"/>
        <path d="M344.185 276.457C365.761 276.457 383.247 285.682 383.247 297.065C383.247 308.447 365.761 317.672 344.185 317.672C322.609 317.672 305.123 308.447 305.123 297.065C305.123 285.682 322.613 276.457 344.185 276.457ZM324.124 313.53L358.898 279.088C354.384 278.058 349.414 277.487 344.185 277.487C323.689 277.487 307.076 286.253 307.076 297.065C307.076 303.976 313.872 310.048 324.124 313.53Z" fill="#FF7FB4"/>
        <path d="M344.186 271.841C370.593 271.841 392 283.137 392 297.068C392 310.999 370.593 322.296 344.186 322.296C317.778 322.296 296.371 311.003 296.371 297.068C296.371 283.133 317.778 271.841 344.186 271.841ZM344.186 322.128C370.421 322.128 391.689 310.91 391.689 297.068C391.689 283.227 371.107 272.374 345.468 272.016C344.396 272.009 344.291 272.009 344.186 272.009C317.951 272.009 296.682 283.227 296.682 297.072C296.682 297.136 296.682 297.199 296.682 297.262C296.697 297.77 296.701 297.833 296.705 297.897C296.75 298.464 296.765 298.595 296.78 298.722C296.791 298.815 296.798 298.871 296.806 298.927C298.631 311.914 319.143 322.132 344.182 322.132L344.186 322.128Z" fill="#624DE0"/>
        <path d="M392 297.065V311.447C392 315.47 390.216 319.273 387.041 322.643C383.435 326.487 378.019 329.771 371.392 332.193C367.317 333.686 362.782 334.85 357.92 335.615C354.962 336.085 351.881 336.406 348.71 336.559C347.218 336.634 345.711 336.675 344.186 336.675C343.777 336.675 343.369 336.671 342.96 336.664C337.465 336.596 332.195 336.033 327.311 335.063C324.282 334.462 321.403 333.697 318.708 332.805C315.383 331.7 312.336 330.379 309.633 328.894C304.543 326.084 300.667 322.654 298.463 318.844C297.106 316.504 296.375 314.026 296.375 311.455V297.072C296.375 299.643 297.102 302.125 298.463 304.461C300.667 308.275 304.543 311.705 309.633 314.515C312.336 316.004 315.383 317.321 318.708 318.426C321.403 319.322 324.286 320.083 327.311 320.684C332.195 321.654 337.465 322.217 342.96 322.285C343.369 322.292 343.777 322.296 344.186 322.296C345.715 322.296 347.222 322.258 348.71 322.18C351.881 322.027 354.959 321.706 357.92 321.236C362.782 320.475 367.317 319.307 371.392 317.814C378.019 315.388 383.435 312.104 387.041 308.26C390.216 304.887 392 301.084 392 297.065Z" fill="#3D27C1"/>
        <path d="M309.629 314.507V328.886C304.538 326.076 300.663 322.647 298.458 318.836V304.454C300.663 308.268 304.538 311.697 309.629 314.507Z" fill="#7F6CFA"/>
        <path d="M342.96 322.281V336.66C337.465 336.593 332.195 336.029 327.311 335.059V320.68C332.195 321.65 337.465 322.214 342.96 322.281Z" fill="#5E4BD0"/>
        <path d="M387.041 308.26V322.643C383.435 326.487 378.019 329.771 371.392 332.193V317.814C378.019 315.388 383.435 312.104 387.041 308.26Z" fill="#5E4BD0"/>
        <path d="M357.92 321.232V335.607C354.963 336.078 351.882 336.399 348.71 336.552V322.173C351.882 322.02 354.959 321.699 357.92 321.228V321.232Z" fill="#5E4BD0"/>
        <path opacity="0.24" d="M387.48 308.671C383.84 312.552 378.345 315.91 371.598 318.377C367.418 319.907 362.845 321.068 358.014 321.825C354.985 322.307 351.863 322.628 348.74 322.777C347.664 322.833 346.562 322.863 345.457 322.878V336.055C346.54 336.04 347.623 336.01 348.68 335.958C351.761 335.809 354.835 335.495 357.822 335.021C362.579 334.275 367.074 333.133 371.178 331.629C377.749 329.23 383.079 325.983 386.595 322.232C389.778 318.855 391.393 315.228 391.393 311.451V302.868C390.538 304.872 389.23 306.812 387.48 308.674V308.671Z" fill="#B7ABFF"/>
        <path d="M386.636 314.519C386.636 311.499 385.987 310.854 382.955 310.854C385.987 310.854 386.636 310.208 386.636 307.189C386.636 310.208 387.284 310.854 390.316 310.854C387.284 310.854 386.636 311.499 386.636 314.519Z" fill="#B7ABFF"/>
        <path d="M382.955 317.802C382.955 315.97 382.561 315.575 380.717 315.575C382.557 315.575 382.955 315.183 382.955 313.347C382.955 315.179 383.348 315.575 385.192 315.575C383.352 315.575 382.955 315.966 382.955 317.802Z" fill="#B7ABFF"/>
        <path d="M387.678 318.989C387.678 317.638 387.386 317.347 386.029 317.347C387.386 317.347 387.678 317.056 387.678 315.705C387.678 317.056 387.97 317.347 389.327 317.347C387.97 317.347 387.678 317.638 387.678 318.989Z" fill="#B7ABFF"/>
        <path d="M299.299 311.932C299.299 309.783 298.838 309.324 296.679 309.324C298.838 309.324 299.299 308.865 299.299 306.715C299.299 308.865 299.76 309.324 301.919 309.324C299.76 309.324 299.299 309.783 299.299 311.932Z" fill="#B7ABFF"/>
    </g>
    <g filter="url(#filter2_d_0_1)">
        <path d="M316.203 208.824C321.432 208.824 326.403 209.395 330.916 210.425L296.142 244.867C285.894 241.385 279.094 235.313 279.094 228.402C279.094 217.591 295.707 208.824 316.203 208.824Z" fill="#B7ABFF"/>
        <path d="M317.485 203.35C343.128 203.708 363.707 214.788 363.707 228.402C363.707 242.016 342.438 253.461 316.203 253.461C294.152 253.461 275.608 245.535 270.259 234.783C273.363 241.008 280.893 246.289 290.965 249.629L294.099 246.509C300.468 248.677 308.058 249.938 316.203 249.938C338.75 249.938 357.023 240.295 357.023 228.406C357.023 219.501 346.783 211.862 332.175 208.582L335.309 205.462C329.829 204.189 323.813 203.443 317.482 203.353L317.485 203.35Z" fill="#7F6CFA"/>
        <path d="M316.204 203.339C316.309 203.339 316.414 203.339 316.519 203.339C316.972 203.339 317.066 203.339 317.156 203.342C317.28 203.342 317.377 203.342 317.474 203.346C323.817 203.436 329.837 204.182 335.313 205.455L332.179 208.574C327.273 207.473 321.875 206.861 316.204 206.861C293.657 206.861 275.387 216.505 275.387 228.398C275.387 235.992 282.839 242.669 294.099 246.505L290.966 249.625C278.544 245.505 269.982 238.437 268.832 230.275C268.82 230.193 268.813 230.137 268.805 230.081C268.787 229.917 268.772 229.786 268.76 229.656C268.753 229.566 268.749 229.518 268.745 229.465C268.738 229.361 268.734 229.312 268.73 229.26C268.723 229.156 268.719 229.088 268.715 229.025C268.715 228.943 268.708 228.891 268.708 228.835C268.708 228.73 268.704 228.682 268.704 228.637C268.704 228.518 268.704 228.454 268.704 228.391C268.704 214.549 289.973 203.327 316.208 203.327L316.204 203.339Z" fill="#6C54FB"/>
        <path d="M294.1 246.509C294.696 246.714 295.303 246.908 295.921 247.095C296.334 247.218 296.75 247.341 297.169 247.457C298.433 247.807 299.733 248.125 301.072 248.408C301.964 248.595 302.871 248.767 303.789 248.923C304.94 249.117 306.113 249.285 307.305 249.423C308.261 249.535 309.228 249.629 310.206 249.707C312.163 249.86 314.165 249.938 316.2 249.938C318.235 249.938 320.391 249.853 322.415 249.692C323.09 249.636 323.761 249.573 324.424 249.502C324.758 249.464 325.088 249.427 325.417 249.386C338.915 247.744 349.849 242.568 354.542 235.806C356.147 233.496 357.02 231.003 357.02 228.402C357.02 227.566 356.93 226.745 356.754 225.935C356.638 225.394 356.484 224.86 356.293 224.334C356.15 223.938 355.986 223.547 355.802 223.158C355.127 221.737 354.186 220.374 353.009 219.08C352.687 218.729 352.35 218.378 351.993 218.038C351.637 217.695 351.263 217.359 350.876 217.031C350.355 216.59 349.808 216.161 349.231 215.743C348.942 215.534 348.646 215.329 348.346 215.124C346.836 214.109 345.156 213.164 343.331 212.306C340.044 210.761 336.28 209.496 332.176 208.574C327.269 207.473 321.871 206.861 316.2 206.861C293.653 206.861 275.384 216.505 275.384 228.398C275.384 235.992 282.836 242.669 294.096 246.505L294.1 246.509ZM316.204 207.794C337.78 207.794 355.266 217.02 355.266 228.402C355.266 239.784 337.78 249.009 316.204 249.009C294.628 249.009 277.142 239.784 277.142 228.402C277.142 217.02 294.632 207.794 316.204 207.794Z" fill="#3D27C1"/>
        <path d="M316.207 207.791C337.783 207.791 355.269 217.016 355.269 228.398C355.269 239.78 337.783 249.006 316.207 249.006C294.631 249.006 277.145 239.78 277.145 228.398C277.145 217.016 294.635 207.791 316.207 207.791ZM296.146 244.863L330.92 210.422C326.406 209.392 321.436 208.821 316.207 208.821C295.711 208.821 279.098 217.587 279.098 228.398C279.098 235.31 285.894 241.381 296.146 244.863Z" fill="#B7ABFF"/>
        <path d="M316.208 203.174C342.615 203.174 364.022 214.471 364.022 228.402C364.022 242.333 342.615 253.629 316.208 253.629C289.8 253.629 268.393 242.337 268.393 228.402C268.393 214.467 289.8 203.174 316.208 203.174ZM316.208 253.461C342.443 253.461 363.711 242.243 363.711 228.402C363.711 214.56 343.129 203.708 317.49 203.35C316.418 203.342 316.313 203.342 316.208 203.342C289.973 203.342 268.704 214.56 268.704 228.405C268.704 228.469 268.704 228.532 268.704 228.596C268.719 229.103 268.723 229.167 268.727 229.23C268.772 229.797 268.787 229.928 268.802 230.055C268.813 230.148 268.82 230.204 268.828 230.26C270.653 243.247 291.165 253.465 316.204 253.465L316.208 253.461Z" fill="#624DE0"/>
        <path d="M364.022 228.398V242.781C364.022 246.804 362.238 250.606 359.063 253.976C355.457 257.82 350.04 261.104 343.413 263.526C339.339 265.019 334.803 266.183 329.941 266.948C326.984 267.419 323.903 267.74 320.732 267.893C319.24 267.967 317.733 268.008 316.207 268.008C315.799 268.008 315.39 268.005 314.982 267.997C309.486 267.93 304.216 267.366 299.332 266.396C296.303 265.795 293.425 265.03 290.729 264.138C287.405 263.034 284.357 261.713 281.655 260.227C276.564 257.417 272.688 253.988 270.484 250.177C269.127 247.837 268.396 245.359 268.396 242.788V228.406C268.396 230.977 269.124 233.458 270.484 235.795C272.688 239.609 276.564 243.038 281.655 245.848C284.357 247.337 287.405 248.655 290.729 249.759C293.425 250.655 296.307 251.416 299.332 252.017C304.216 252.987 309.486 253.551 314.982 253.618C315.39 253.626 315.799 253.629 316.207 253.629C317.737 253.629 319.243 253.592 320.732 253.514C323.903 253.361 326.98 253.04 329.941 252.569C334.803 251.808 339.339 250.64 343.413 249.147C350.04 246.722 355.457 243.438 359.063 239.594C362.238 236.22 364.022 232.417 364.022 228.398Z" fill="#3D27C1"/>
        <path d="M281.651 245.841V260.22C276.561 257.41 272.685 253.98 270.481 250.17V235.787C272.685 239.601 276.561 243.031 281.651 245.841Z" fill="#7F6CFA"/>
        <path d="M314.982 253.614V267.993C309.486 267.926 304.216 267.363 299.332 266.392V252.013C304.216 252.984 309.486 253.547 314.982 253.614Z" fill="#5E4BD0"/>
        <path d="M359.059 239.594V253.976C355.453 257.82 350.037 261.104 343.41 263.526V249.151C350.037 246.725 355.453 243.441 359.059 239.597V239.594Z" fill="#5E4BD0"/>
        <path d="M329.942 252.569V266.945C326.984 267.415 323.903 267.736 320.732 267.889V253.514C323.903 253.361 326.981 253.04 329.942 252.569Z" fill="#5E4BD0"/>
        <path opacity="0.24" d="M359.501 240.004C355.862 243.885 350.366 247.244 343.619 249.711C339.44 251.241 334.867 252.401 330.035 253.159C327.006 253.64 323.884 253.961 320.762 254.111C319.686 254.167 318.584 254.197 317.478 254.211V267.389C318.561 267.374 319.645 267.344 320.702 267.292C323.783 267.142 326.857 266.829 329.844 266.355C334.601 265.609 339.095 264.467 343.2 262.963C349.77 260.563 355.101 257.316 358.617 253.566C361.799 250.188 363.415 246.561 363.415 242.784V234.201C362.56 236.205 361.252 238.146 359.501 240.008V240.004Z" fill="#B7ABFF"/>
        <path d="M358.657 245.852C358.657 242.833 358.009 242.187 354.977 242.187C358.009 242.187 358.657 241.542 358.657 238.523C358.657 241.542 359.306 242.187 362.338 242.187C359.306 242.187 358.657 242.833 358.657 245.852Z" fill="#B7ABFF"/>
        <path d="M354.977 249.136C354.977 247.304 354.583 246.908 352.739 246.908C354.58 246.908 354.977 246.516 354.977 244.68C354.977 246.513 355.371 246.908 357.215 246.908C355.374 246.908 354.977 247.3 354.977 249.136Z" fill="#B7ABFF"/>
        <path d="M359.7 250.323C359.7 248.972 359.408 248.681 358.051 248.681C359.408 248.681 359.7 248.39 359.7 247.039C359.7 248.39 359.992 248.681 361.349 248.681C359.992 248.681 359.7 248.972 359.7 250.323Z" fill="#B7ABFF"/>
        <path d="M271.321 243.266C271.321 241.12 270.86 240.657 268.701 240.657C270.86 240.657 271.321 240.198 271.321 238.049C271.321 240.198 271.782 240.657 273.941 240.657C271.782 240.657 271.321 241.116 271.321 243.266Z" fill="#B7ABFF"/>
    </g>
    <g filter="url(#filter3_d_0_1)">
        <path d="M318.259 193.744C323.488 193.744 328.458 194.315 332.971 195.345L298.197 229.786C287.949 226.304 281.149 220.233 281.149 213.321C281.149 202.51 297.762 193.744 318.259 193.744Z" fill="#B7ABFF"/>
        <path d="M319.54 188.269C345.183 188.627 365.761 199.707 365.761 213.321C365.761 226.935 344.493 238.381 318.258 238.381C296.206 238.381 277.663 230.454 272.314 219.703C275.418 225.927 282.948 231.208 293.02 234.548L296.154 231.428C302.522 233.596 310.113 234.858 318.258 234.858C340.805 234.858 359.078 225.215 359.078 213.325C359.078 204.421 348.837 196.781 334.23 193.501L337.364 190.381C331.883 189.109 325.867 188.362 319.536 188.273L319.54 188.269Z" fill="#7F6CFA"/>
        <path d="M318.258 188.262C318.363 188.262 318.468 188.262 318.573 188.262C319.026 188.262 319.12 188.261 319.21 188.265C319.334 188.265 319.431 188.265 319.529 188.269C325.871 188.359 331.891 189.105 337.367 190.377L334.234 193.497C329.327 192.396 323.929 191.784 318.258 191.784C295.711 191.784 277.442 201.428 277.442 213.321C277.442 220.915 284.894 227.592 296.154 231.428L293.02 234.548C280.598 230.428 272.037 223.36 270.886 215.198C270.874 215.116 270.867 215.06 270.86 215.004C270.841 214.84 270.826 214.709 270.815 214.579C270.807 214.489 270.803 214.441 270.8 214.388C270.792 214.284 270.788 214.235 270.785 214.183C270.777 214.079 270.773 214.011 270.77 213.948C270.77 213.866 270.762 213.814 270.762 213.758C270.762 213.653 270.758 213.605 270.758 213.56C270.758 213.44 270.758 213.377 270.758 213.314C270.758 199.472 292.027 188.25 318.262 188.25L318.258 188.262Z" fill="#6C54FB"/>
        <path d="M296.154 231.428C296.75 231.633 297.357 231.827 297.975 232.014C298.388 232.137 298.804 232.26 299.224 232.376C300.487 232.727 301.788 233.044 303.126 233.328C304.018 233.514 304.925 233.686 305.843 233.843C306.994 234.037 308.167 234.205 309.359 234.343C310.315 234.455 311.282 234.548 312.261 234.626C314.217 234.779 316.219 234.858 318.254 234.858C320.29 234.858 322.445 234.772 324.469 234.611C325.144 234.555 325.815 234.492 326.478 234.421C326.812 234.384 327.142 234.346 327.472 234.305C340.97 232.663 351.904 227.487 356.597 220.725C358.201 218.415 359.074 215.922 359.074 213.321C359.074 212.485 358.984 211.664 358.808 210.854C358.692 210.313 358.538 209.779 358.347 209.253C358.205 208.858 358.04 208.466 357.856 208.078C357.181 206.656 356.241 205.294 355.064 203.999C354.741 203.648 354.404 203.297 354.048 202.958C353.692 202.614 353.317 202.278 352.931 201.95C352.41 201.51 351.862 201.08 351.285 200.663C350.997 200.454 350.7 200.248 350.401 200.043C348.89 199.028 347.211 198.084 345.385 197.225C342.098 195.68 338.334 194.415 334.23 193.494C329.323 192.393 323.926 191.781 318.254 191.781C295.708 191.781 277.438 201.424 277.438 213.317C277.438 220.912 284.89 227.588 296.15 231.424L296.154 231.428ZM318.258 192.714C339.834 192.714 357.32 201.939 357.32 213.321C357.32 224.703 339.834 233.928 318.258 233.928C296.682 233.928 279.196 224.703 279.196 213.321C279.196 201.939 296.686 192.714 318.258 192.714Z" fill="#3D27C1"/>
        <path d="M318.258 192.714C339.834 192.714 357.32 201.939 357.32 213.321C357.32 224.703 339.834 233.929 318.258 233.929C296.682 233.929 279.196 224.703 279.196 213.321C279.196 201.939 296.686 192.714 318.258 192.714ZM298.196 229.786L332.97 195.345C328.457 194.315 323.487 193.744 318.258 193.744C297.762 193.744 281.149 202.51 281.149 213.321C281.149 220.233 287.945 226.304 298.196 229.786Z" fill="#B7ABFF"/>
        <path d="M318.258 188.094C344.666 188.094 366.073 199.39 366.073 213.321C366.073 227.252 344.666 238.549 318.258 238.549C291.851 238.549 270.444 227.256 270.444 213.321C270.444 199.386 291.851 188.094 318.258 188.094ZM318.258 238.381C344.493 238.381 365.762 227.163 365.762 213.321C365.762 199.48 345.179 188.627 319.54 188.269C318.468 188.262 318.363 188.262 318.258 188.262C292.023 188.262 270.755 199.48 270.755 213.325C270.755 213.388 270.755 213.452 270.755 213.515C270.77 214.023 270.774 214.086 270.777 214.15C270.822 214.717 270.837 214.847 270.852 214.974C270.864 215.068 270.871 215.124 270.879 215.18C272.704 228.167 293.215 238.384 318.255 238.384L318.258 238.381Z" fill="#624DE0"/>
        <path d="M366.073 213.321V227.704C366.073 231.727 364.288 235.53 361.113 238.899C357.507 242.743 352.091 246.027 345.464 248.449C341.389 249.942 336.854 251.106 331.992 251.871C329.035 252.342 325.953 252.663 322.782 252.816C321.29 252.89 319.784 252.931 318.258 252.931C317.849 252.931 317.441 252.928 317.032 252.92C311.537 252.853 306.267 252.289 301.383 251.319C298.354 250.718 295.475 249.953 292.78 249.061C289.455 247.957 286.408 246.636 283.705 245.15C278.615 242.34 274.739 238.911 272.535 235.1C271.178 232.761 270.447 230.283 270.447 227.711V213.329C270.447 215.9 271.174 218.382 272.535 220.718C274.739 224.532 278.615 227.961 283.705 230.771C286.408 232.26 289.455 233.578 292.78 234.682C295.475 235.578 298.358 236.339 301.383 236.94C306.267 237.911 311.537 238.474 317.032 238.541C317.441 238.549 317.849 238.552 318.258 238.552C319.787 238.552 321.294 238.515 322.782 238.437C325.953 238.284 329.031 237.963 331.992 237.493C336.854 236.731 341.389 235.563 345.464 234.07C352.091 231.645 357.507 228.361 361.113 224.517C364.288 221.143 366.073 217.34 366.073 213.321Z" fill="#3D27C1"/>
        <path d="M283.701 230.764V245.143C278.611 242.333 274.735 238.903 272.531 235.093V220.71C274.735 224.524 278.611 227.954 283.701 230.764Z" fill="#7F6CFA"/>
        <path d="M317.032 238.537V252.916C311.537 252.849 306.267 252.286 301.383 251.315V236.936C306.267 237.907 311.537 238.47 317.032 238.537Z" fill="#5E4BD0"/>
        <path d="M361.114 224.517V238.899C357.508 242.743 352.092 246.027 345.464 248.449V234.074C352.092 231.648 357.508 228.364 361.114 224.52V224.517Z" fill="#5E4BD0"/>
        <path d="M331.993 237.489V251.868C329.035 252.338 325.954 252.659 322.783 252.812V238.437C325.954 238.284 329.031 237.963 331.993 237.492V237.489Z" fill="#5E4BD0"/>
        <path opacity="0.24" d="M361.556 224.927C357.916 228.808 352.421 232.167 345.674 234.634C341.495 236.164 336.922 237.325 332.09 238.082C329.061 238.564 325.939 238.884 322.816 239.034C321.741 239.09 320.638 239.12 319.533 239.134V252.312C320.616 252.297 321.699 252.267 322.756 252.215C325.838 252.065 328.911 251.752 331.899 251.278C336.655 250.532 341.15 249.39 345.254 247.886C351.825 245.486 357.155 242.239 360.671 238.489C363.854 235.112 365.469 231.484 365.469 227.707V219.124C364.615 221.128 363.306 223.069 361.556 224.931V224.927Z" fill="#B7ABFF"/>
        <path d="M360.708 230.775C360.708 227.756 360.06 227.11 357.027 227.11C360.06 227.11 360.708 226.465 360.708 223.446C360.708 226.465 361.357 227.11 364.389 227.11C361.357 227.11 360.708 227.756 360.708 230.775Z" fill="#B7ABFF"/>
        <path d="M357.031 234.059C357.031 232.227 356.638 231.831 354.793 231.831C356.634 231.831 357.031 231.439 357.031 229.603C357.031 231.436 357.425 231.831 359.269 231.831C357.429 231.831 357.031 232.223 357.031 234.059Z" fill="#B7ABFF"/>
        <path d="M361.754 235.242C361.754 233.891 361.462 233.6 360.105 233.6C361.462 233.6 361.754 233.309 361.754 231.958C361.754 233.309 362.047 233.6 363.404 233.6C362.047 233.6 361.754 233.891 361.754 235.242Z" fill="#B7ABFF"/>
        <path d="M273.375 228.189C273.375 226.043 272.914 225.58 270.755 225.58C272.914 225.58 273.375 225.121 273.375 222.972C273.375 225.121 273.836 225.58 275.995 225.58C273.836 225.58 273.375 226.039 273.375 228.189Z" fill="#B7ABFF"/>
    </g>
    <g filter="url(#filter4_d_0_1)">
        <path d="M316.203 179.014C321.432 179.014 326.403 179.585 330.916 180.615L296.142 215.057C285.894 211.575 279.094 205.503 279.094 198.591C279.094 187.78 295.707 179.014 316.203 179.014Z" fill="#B7ABFF"/>
        <path d="M317.485 173.536C343.128 173.894 363.707 184.974 363.707 198.588C363.707 212.202 342.438 223.647 316.203 223.647C294.152 223.647 275.608 215.721 270.259 204.969C273.363 211.194 280.893 216.475 290.965 219.815L294.099 216.695C300.468 218.863 308.058 220.124 316.203 220.124C338.75 220.124 357.023 210.481 357.023 198.592C357.023 189.687 346.783 182.048 332.175 178.768L335.309 175.648C329.829 174.375 323.813 173.629 317.482 173.539L317.485 173.536Z" fill="#7F6CFA"/>
        <path d="M316.204 173.528C316.309 173.528 316.414 173.528 316.519 173.528C316.972 173.528 317.066 173.528 317.156 173.532C317.28 173.532 317.377 173.532 317.474 173.536C323.817 173.625 329.837 174.372 335.313 175.644L332.179 178.764C327.273 177.663 321.875 177.051 316.204 177.051C293.657 177.051 275.387 186.694 275.387 198.588C275.387 206.182 282.839 212.859 294.099 216.695L290.966 219.815C278.544 215.695 269.982 208.627 268.832 200.465C268.82 200.383 268.813 200.327 268.805 200.271C268.787 200.107 268.772 199.976 268.76 199.845C268.753 199.756 268.749 199.707 268.745 199.655C268.738 199.551 268.734 199.502 268.73 199.45C268.723 199.345 268.719 199.278 268.715 199.215C268.715 199.133 268.708 199.08 268.708 199.024C268.708 198.92 268.704 198.871 268.704 198.827C268.704 198.707 268.704 198.644 268.704 198.58C268.704 184.739 289.973 173.517 316.208 173.517L316.204 173.528Z" fill="#6C54FB"/>
        <path d="M294.1 216.695C294.696 216.9 295.303 217.094 295.921 217.281C296.334 217.404 296.75 217.527 297.169 217.643C298.433 217.994 299.733 218.311 301.072 218.594C301.964 218.781 302.871 218.953 303.789 219.109C304.94 219.303 306.113 219.471 307.305 219.61C308.261 219.721 309.228 219.815 310.206 219.893C312.163 220.046 314.165 220.125 316.2 220.125C318.235 220.125 320.391 220.039 322.415 219.878C323.09 219.822 323.761 219.759 324.424 219.688C324.758 219.651 325.088 219.613 325.417 219.572C338.915 217.93 349.849 212.754 354.542 205.992C356.147 203.682 357.02 201.189 357.02 198.588C357.02 197.752 356.93 196.931 356.754 196.121C356.638 195.58 356.484 195.046 356.293 194.52C356.15 194.125 355.986 193.733 355.802 193.345C355.127 191.923 354.186 190.561 353.009 189.266C352.687 188.915 352.35 188.564 351.993 188.224C351.637 187.881 351.263 187.545 350.876 187.217C350.355 186.776 349.808 186.347 349.231 185.929C348.942 185.72 348.646 185.515 348.346 185.31C346.836 184.295 345.156 183.351 343.331 182.492C340.044 180.947 336.28 179.682 332.176 178.76C327.269 177.659 321.871 177.047 316.2 177.047C293.653 177.047 275.384 186.691 275.384 198.584C275.384 206.178 282.836 212.855 294.096 216.691L294.1 216.695ZM316.204 177.98C337.78 177.98 355.266 187.206 355.266 198.588C355.266 209.97 337.78 219.195 316.204 219.195C294.628 219.195 277.142 209.97 277.142 198.588C277.142 187.206 294.632 177.98 316.204 177.98Z" fill="#3D27C1"/>
        <path d="M316.207 177.98C337.783 177.98 355.269 187.206 355.269 198.588C355.269 209.97 337.783 219.195 316.207 219.195C294.631 219.195 277.145 209.97 277.145 198.588C277.145 187.206 294.635 177.98 316.207 177.98ZM296.146 215.053L330.92 180.611C326.406 179.581 321.436 179.01 316.207 179.01C295.711 179.01 279.098 187.777 279.098 198.588C279.098 205.499 285.894 211.571 296.146 215.053Z" fill="#B7ABFF"/>
        <path d="M316.208 173.364C342.615 173.364 364.022 184.66 364.022 198.592C364.022 212.523 342.615 223.819 316.208 223.819C289.8 223.819 268.393 212.526 268.393 198.592C268.393 184.657 289.8 173.364 316.208 173.364ZM316.208 223.651C342.443 223.651 363.711 212.433 363.711 198.592C363.711 184.75 343.129 173.898 317.49 173.539C316.418 173.532 316.313 173.532 316.208 173.532C289.973 173.532 268.704 184.75 268.704 198.595C268.704 198.659 268.704 198.722 268.704 198.786C268.719 199.293 268.723 199.357 268.727 199.42C268.772 199.987 268.787 200.118 268.802 200.245C268.813 200.338 268.82 200.394 268.828 200.45C270.653 213.437 291.165 223.655 316.204 223.655L316.208 223.651Z" fill="#624DE0"/>
        <path d="M364.022 198.588V212.97C364.022 216.993 362.238 220.796 359.063 224.166C355.457 228.01 350.04 231.294 343.413 233.716C339.339 235.209 334.803 236.373 329.941 237.138C326.984 237.608 323.903 237.929 320.732 238.082C319.24 238.157 317.733 238.198 316.207 238.198C315.799 238.198 315.39 238.194 314.982 238.187C309.486 238.12 304.216 237.556 299.332 236.586C296.303 235.985 293.425 235.22 290.729 234.328C287.405 233.223 284.357 231.902 281.655 230.417C276.564 227.607 272.688 224.177 270.484 220.367C269.127 218.027 268.396 215.549 268.396 212.978V198.595C268.396 201.166 269.124 203.648 270.484 205.984C272.688 209.798 276.564 213.228 281.655 216.038C284.357 217.527 287.405 218.844 290.729 219.949C293.425 220.845 296.307 221.606 299.332 222.207C304.216 223.177 309.486 223.741 314.982 223.808C315.39 223.815 315.799 223.819 316.207 223.819C317.737 223.819 319.243 223.782 320.732 223.703C323.903 223.55 326.98 223.229 329.941 222.759C334.803 221.998 339.339 220.83 343.413 219.337C350.04 216.911 355.457 213.627 359.063 209.783C362.238 206.41 364.022 202.607 364.022 198.588Z" fill="#3D27C1"/>
        <path d="M281.651 216.031V230.41C276.561 227.599 272.685 224.17 270.481 220.36V205.977C272.685 209.791 276.561 213.221 281.651 216.031Z" fill="#7F6CFA"/>
        <path d="M314.982 223.804V238.183C309.486 238.116 304.216 237.552 299.332 236.582V222.203C304.216 223.173 309.486 223.737 314.982 223.804Z" fill="#5E4BD0"/>
        <path d="M359.059 209.783V224.166C355.453 228.01 350.037 231.294 343.41 233.716V219.337C350.037 216.911 355.453 213.627 359.059 209.783Z" fill="#5E4BD0"/>
        <path d="M329.942 222.755V237.131C326.984 237.601 323.903 237.922 320.732 238.075V223.696C323.903 223.543 326.981 223.222 329.942 222.752V222.755Z" fill="#5E4BD0"/>
        <path opacity="0.24" d="M359.501 210.194C355.862 214.075 350.366 217.434 343.619 219.901C339.44 221.431 334.867 222.591 330.035 223.349C327.006 223.83 323.884 224.151 320.762 224.3C319.686 224.356 318.584 224.386 317.478 224.401V237.578C318.561 237.564 319.645 237.534 320.702 237.481C323.783 237.332 326.857 237.019 329.844 236.545C334.601 235.798 339.095 234.656 343.2 233.152C349.77 230.753 355.101 227.506 358.617 223.756C361.799 220.378 363.415 216.751 363.415 212.974V204.391C362.56 206.395 361.252 208.335 359.501 210.198V210.194Z" fill="#B7ABFF"/>
        <path d="M358.657 216.042C358.657 213.023 358.009 212.377 354.977 212.377C358.009 212.377 358.657 211.731 358.657 208.712C358.657 211.731 359.306 212.377 362.338 212.377C359.306 212.377 358.657 213.023 358.657 216.042Z" fill="#B7ABFF"/>
        <path d="M354.977 219.326C354.977 217.494 354.583 217.098 352.739 217.098C354.58 217.098 354.977 216.706 354.977 214.87C354.977 216.702 355.371 217.098 357.215 217.098C355.374 217.098 354.977 217.49 354.977 219.326Z" fill="#B7ABFF"/>
        <path d="M359.7 220.513C359.7 219.162 359.408 218.871 358.051 218.871C359.408 218.871 359.7 218.579 359.7 217.229C359.7 218.579 359.992 218.871 361.349 218.871C359.992 218.871 359.7 219.162 359.7 220.513Z" fill="#B7ABFF"/>
        <path d="M271.321 213.456C271.321 211.306 270.86 210.847 268.701 210.847C270.86 210.847 271.321 210.388 271.321 208.238C271.321 210.388 271.782 210.847 273.941 210.847C271.782 210.847 271.321 211.306 271.321 213.456Z" fill="#B7ABFF"/>
    </g>
    <g filter="url(#filter5_d_0_1)">
        <path d="M316.983 162.866C322.212 162.866 327.182 163.437 331.695 164.467L296.921 198.909C286.673 195.427 279.874 189.355 279.874 182.444C279.874 171.632 296.486 162.866 316.983 162.866Z" fill="#FFACCF"/>
        <path d="M318.265 157.392C343.907 157.75 364.486 168.83 364.486 182.444C364.486 196.058 343.218 207.503 316.983 207.503C294.931 207.503 276.388 199.577 271.039 188.825C274.142 195.05 281.673 200.331 291.745 203.671L294.878 200.551C301.247 202.719 308.837 203.98 316.983 203.98C339.529 203.98 357.803 194.337 357.803 182.447C357.803 173.543 347.562 165.904 332.955 162.624L336.088 159.504C330.608 158.231 324.592 157.485 318.261 157.395L318.265 157.392Z" fill="#7F6CFA"/>
        <path d="M316.983 157.38C317.088 157.38 317.192 157.38 317.297 157.38C317.751 157.38 317.845 157.38 317.935 157.384C318.058 157.384 318.156 157.384 318.253 157.388C324.596 157.477 330.615 158.224 336.092 159.496L332.958 162.616C328.052 161.515 322.654 160.903 316.983 160.903C294.436 160.903 276.166 170.546 276.166 182.44C276.166 190.034 283.618 196.711 294.878 200.547L291.745 203.667C279.322 199.547 270.761 192.479 269.61 184.317C269.599 184.235 269.592 184.179 269.584 184.123C269.565 183.959 269.55 183.828 269.539 183.698C269.532 183.608 269.528 183.56 269.524 183.507C269.517 183.403 269.513 183.354 269.509 183.302C269.502 183.198 269.498 183.13 269.494 183.067C269.494 182.985 269.487 182.933 269.487 182.877C269.487 182.772 269.483 182.724 269.483 182.679C269.483 182.559 269.483 182.496 269.483 182.433C269.479 168.602 290.748 157.38 316.983 157.38Z" fill="#6C54FB"/>
        <path d="M294.878 200.551C295.474 200.756 296.082 200.95 296.7 201.137C297.112 201.26 297.528 201.383 297.948 201.499C299.211 201.849 300.512 202.167 301.85 202.45C302.742 202.637 303.65 202.809 304.568 202.965C305.719 203.159 306.892 203.327 308.084 203.465C309.04 203.577 310.007 203.671 310.985 203.749C312.942 203.902 314.944 203.98 316.979 203.98C319.014 203.98 321.17 203.895 323.194 203.734C323.868 203.678 324.539 203.615 325.203 203.544C325.536 203.506 325.866 203.469 326.196 203.428C339.694 201.786 350.628 196.61 355.321 189.848C356.926 187.538 357.799 185.045 357.799 182.444C357.799 181.608 357.709 180.787 357.533 179.977C357.417 179.436 357.263 178.902 357.072 178.376C356.929 177.98 356.764 177.588 356.581 177.2C355.906 175.779 354.965 174.416 353.788 173.121C353.466 172.771 353.128 172.42 352.772 172.08C352.416 171.737 352.045 171.401 351.655 171.073C351.134 170.632 350.587 170.203 350.01 169.785C349.721 169.576 349.425 169.371 349.125 169.166C347.615 168.151 345.935 167.206 344.11 166.348C340.822 164.803 337.059 163.538 332.955 162.616C328.048 161.515 322.65 160.903 316.979 160.903C294.432 160.903 276.163 170.546 276.163 182.44C276.163 190.034 283.614 196.711 294.875 200.547L294.878 200.551ZM316.983 161.836C338.558 161.836 356.045 171.061 356.045 182.444C356.045 193.826 338.558 203.051 316.983 203.051C295.407 203.051 277.921 193.826 277.921 182.444C277.921 171.061 295.411 161.836 316.983 161.836Z" fill="#3D27C1"/>
        <path d="M316.983 161.836C338.559 161.836 356.045 171.062 356.045 182.444C356.045 193.826 338.559 203.051 316.983 203.051C295.407 203.051 277.921 193.826 277.921 182.444C277.921 171.062 295.411 161.836 316.983 161.836ZM296.922 198.909L331.695 164.467C327.182 163.437 322.212 162.866 316.983 162.866C296.487 162.866 279.874 171.632 279.874 182.444C279.874 189.355 286.67 195.427 296.922 198.909Z" fill="#FF7FB4"/>
        <path d="M316.983 157.216C343.39 157.216 364.798 168.513 364.798 182.444C364.798 196.375 343.39 207.671 316.983 207.671C290.576 207.671 269.168 196.379 269.168 182.444C269.168 168.509 290.576 157.216 316.983 157.216ZM316.983 207.503C343.218 207.503 364.486 196.285 364.486 182.444C364.486 168.602 343.908 157.75 318.265 157.392C317.193 157.384 317.088 157.384 316.983 157.384C290.748 157.384 269.48 168.602 269.48 182.447C269.48 182.511 269.48 182.574 269.48 182.638C269.495 183.145 269.498 183.209 269.502 183.272C269.547 183.839 269.562 183.97 269.577 184.097C269.588 184.19 269.596 184.246 269.603 184.302C271.429 197.289 291.94 207.507 316.979 207.507L316.983 207.503Z" fill="#624DE0"/>
        <path d="M364.797 182.444V196.826C364.797 200.849 363.013 204.652 359.838 208.022C356.232 211.866 350.816 215.15 344.189 217.572C340.114 219.065 335.578 220.229 330.717 220.994C327.759 221.464 324.678 221.785 321.507 221.938C320.015 222.013 318.508 222.054 316.983 222.054C316.574 222.054 316.166 222.05 315.757 222.043C310.262 221.976 304.992 221.412 300.107 220.442C297.079 219.841 294.2 219.076 291.505 218.184C288.18 217.079 285.133 215.758 282.43 214.273C277.34 211.463 273.464 208.033 271.26 204.223C269.903 201.883 269.172 199.405 269.172 196.834V182.451C269.172 185.022 269.899 187.504 271.26 189.84C273.464 193.654 277.34 197.084 282.43 199.894C285.133 201.383 288.18 202.7 291.505 203.805C294.2 204.701 297.082 205.462 300.107 206.063C304.992 207.033 310.262 207.597 315.757 207.664C316.166 207.671 316.574 207.675 316.983 207.675C318.512 207.675 320.019 207.638 321.507 207.559C324.678 207.406 327.756 207.085 330.717 206.615C335.578 205.854 340.114 204.686 344.189 203.193C350.816 200.767 356.232 197.483 359.838 193.639C363.013 190.266 364.797 186.463 364.797 182.444Z" fill="#3D27C1"/>
        <path d="M282.43 199.883V214.262C277.34 211.452 273.464 208.022 271.26 204.212V189.829C273.464 193.643 277.34 197.073 282.43 199.883Z" fill="#7F6CFA"/>
        <path d="M315.758 207.656V222.035C310.263 221.968 304.993 221.405 300.108 220.434V206.055C304.993 207.026 310.263 207.589 315.758 207.656Z" fill="#5E4BD0"/>
        <path d="M359.839 193.636V208.018C356.233 211.862 350.817 215.146 344.189 217.568V203.189C350.817 200.764 356.233 197.48 359.839 193.636Z" fill="#5E4BD0"/>
        <path d="M330.721 206.611V220.987C327.764 221.457 324.682 221.778 321.511 221.931V207.552C324.682 207.399 327.76 207.078 330.721 206.608V206.611Z" fill="#5E4BD0"/>
        <path opacity="0.24" d="M360.281 194.046C356.641 197.927 351.146 201.286 344.399 203.753C340.219 205.283 335.646 206.443 330.814 207.201C327.786 207.682 324.663 208.003 321.541 208.153C320.465 208.209 319.363 208.238 318.257 208.253V221.431C319.341 221.416 320.424 221.386 321.481 221.334C324.562 221.184 327.636 220.871 330.623 220.397C335.38 219.651 339.874 218.509 343.979 217.005C350.55 214.605 355.88 211.358 359.396 207.608C362.578 204.23 364.194 200.603 364.194 196.826V188.243C363.339 190.247 362.031 192.188 360.281 194.05V194.046Z" fill="#B7ABFF"/>
        <path d="M359.437 199.894C359.437 196.875 358.788 196.229 355.756 196.229C358.788 196.229 359.437 195.584 359.437 192.565C359.437 195.584 360.085 196.229 363.118 196.229C360.085 196.229 359.437 196.875 359.437 199.894Z" fill="#B7ABFF"/>
        <path d="M355.756 203.182C355.756 201.349 355.362 200.954 353.518 200.954C355.359 200.954 355.756 200.562 355.756 198.726C355.756 200.558 356.149 200.954 357.994 200.954C356.153 200.954 355.756 201.346 355.756 203.182Z" fill="#B7ABFF"/>
        <path d="M360.479 204.365C360.479 203.014 360.187 202.723 358.83 202.723C360.187 202.723 360.479 202.432 360.479 201.081C360.479 202.432 360.772 202.723 362.129 202.723C360.772 202.723 360.479 203.014 360.479 204.365Z" fill="#B7ABFF"/>
        <path d="M272.1 197.311C272.1 195.162 271.639 194.703 269.479 194.703C271.639 194.703 272.1 194.244 272.1 192.094C272.1 194.244 272.561 194.703 274.72 194.703C272.561 194.703 272.1 195.162 272.1 197.311Z" fill="#B7ABFF"/>
    </g>
    <g filter="url(#filter6_d_0_1)">
        <path d="M351.015 261.343C362.905 263.377 366.013 268.546 357.294 274.778C345.648 283.104 317.31 290.187 293.995 290.59C285.572 290.735 278.956 289.993 274.492 288.586C266.602 286.104 265.432 281.562 272.869 276.245C284.515 267.915 312.861 260.836 336.172 260.429C342.034 260.328 347.02 260.656 351.015 261.339V261.343ZM294.902 289.941C317.209 289.552 344.332 282.779 355.476 274.808C366.624 266.836 357.568 260.69 335.261 261.078C312.951 261.466 285.831 268.24 274.683 276.211C263.539 284.178 272.588 290.325 294.902 289.937V289.941Z" fill="#624DE0"/>
        <path d="M331.449 263.81C336.064 263.731 339.977 263.996 343.099 264.541L283.609 285.664C277.469 283.738 276.547 280.215 282.323 276.084C291.36 269.62 313.356 264.127 331.449 263.814V263.81Z" fill="#FFACCF"/>
        <path d="M332.311 263.194C351.357 262.862 359.082 268.109 349.569 274.912C340.056 281.715 316.902 287.5 297.856 287.828C278.811 288.16 271.085 282.913 280.599 276.11C290.116 269.307 313.266 263.523 332.311 263.19V263.194ZM283.608 285.664L343.099 264.541C339.973 263.996 336.064 263.732 331.449 263.81C313.356 264.123 291.364 269.62 282.323 276.08C276.547 280.212 277.469 283.734 283.608 285.66V285.664Z" fill="#FF7FB4"/>
        <path d="M336.876 260.522C359.419 260.287 368.445 266.613 357.017 274.785C345.445 283.059 317.291 290.09 294.13 290.493C276.64 290.795 266.999 287.231 268.314 281.902C267.621 284.735 270.024 287.067 275.054 288.586L280.429 286.671C284.241 287.869 289.886 288.507 297.08 288.381C316.984 288.034 341.176 281.992 351.117 274.882C358.561 269.561 355.907 265.15 345.756 263.414L351.132 261.5C347.293 260.813 342.51 260.459 336.876 260.515V260.522Z" fill="#7F6CFA"/>
        <path d="M345.756 263.418C355.907 265.153 358.557 269.564 351.117 274.886C341.176 281.995 316.984 288.037 297.08 288.384C289.887 288.508 284.241 287.873 280.429 286.675C273.693 284.555 272.693 280.678 279.042 276.14C288.987 269.031 313.179 262.985 333.083 262.642C338.087 262.556 342.345 262.836 345.756 263.422V263.418ZM297.856 287.832C316.901 287.5 340.051 281.719 349.569 274.916C359.086 268.113 351.356 262.866 332.311 263.198C313.265 263.53 290.115 269.311 280.598 276.118C271.085 282.921 278.81 288.168 297.856 287.836V287.832Z" fill="#3D27C1"/>
        <path d="M336.034 260.533C336.127 260.533 336.217 260.533 336.311 260.53C336.446 260.53 336.517 260.53 336.592 260.526C336.705 260.526 336.791 260.526 336.873 260.526C342.515 260.466 347.298 260.821 351.136 261.511L345.761 263.426C342.35 262.843 338.095 262.56 333.087 262.646C313.183 262.993 288.987 269.035 279.047 276.144C272.697 280.686 273.698 284.559 280.434 286.679L275.058 288.593C267.723 286.38 265.972 282.432 271.269 277.734C271.325 277.685 271.366 277.648 271.407 277.61C271.505 277.528 271.595 277.45 271.689 277.372C271.752 277.319 271.79 277.29 271.827 277.26C271.906 277.196 271.951 277.159 271.996 277.122C272.045 277.081 272.093 277.043 272.142 277.006C272.213 276.95 272.251 276.92 272.288 276.894C272.371 276.83 272.408 276.801 272.446 276.771C272.528 276.707 272.581 276.67 272.629 276.629C272.697 276.58 272.738 276.547 272.779 276.517C272.866 276.454 272.903 276.427 272.941 276.398C273.038 276.327 273.091 276.289 273.143 276.252C284.714 267.978 312.868 260.944 336.03 260.541L336.034 260.533Z" fill="#6C54FB"/>
        <path d="M361.493 289.743C361.054 290.112 360.57 290.485 360.046 290.859C356.807 293.176 352.275 295.397 346.919 297.404C342.979 298.878 338.597 300.241 333.946 301.435C331.037 302.189 328.023 302.875 324.957 303.487C323.087 303.86 321.194 304.207 319.293 304.521C314.117 305.383 308.858 306.014 303.734 306.368C301.372 306.529 299.033 306.637 296.743 306.674C292.653 306.745 288.987 306.607 285.786 306.286C282.521 305.954 279.736 305.435 277.484 304.749C276.108 304.331 274.931 303.845 273.953 303.312C272.041 302.263 270.931 301.006 270.688 299.587L267.933 283.51C268.176 284.94 269.293 286.201 271.224 287.25C272.195 287.78 273.364 288.254 274.732 288.668C276.989 289.355 279.778 289.877 283.054 290.205C286.247 290.526 289.902 290.668 293.988 290.594C296.282 290.556 298.628 290.448 301.001 290.284C306.125 289.929 311.384 289.295 316.561 288.44C318.461 288.127 320.354 287.78 322.224 287.407C325.291 286.795 328.304 286.108 331.213 285.354C335.861 284.156 340.247 282.794 344.186 281.316C349.535 279.316 354.06 277.099 357.294 274.785C357.827 274.405 358.31 274.028 358.76 273.655C361.433 271.415 362.542 269.344 362.231 267.531L364.982 283.608C365.293 285.425 364.18 287.507 361.496 289.75L361.493 289.743Z" fill="#3D27C1"/>
        <path d="M285.791 306.282C282.526 305.95 279.741 305.431 277.488 304.745C276.112 304.327 274.935 303.842 273.957 303.308L271.228 287.242C272.199 287.772 273.368 288.246 274.737 288.66C276.993 289.347 279.782 289.87 283.058 290.198L285.787 306.279L285.791 306.282Z" fill="#7F6CFA"/>
        <path d="M319.297 304.517C314.12 305.379 308.861 306.01 303.737 306.365L301.004 290.28C306.128 289.926 311.387 289.291 316.564 288.437L319.297 304.517Z" fill="#5E4BD0"/>
        <path d="M361.492 289.743C361.054 290.112 360.57 290.485 360.046 290.858C356.807 293.176 352.275 295.396 346.919 297.404L344.186 281.316C349.535 279.316 354.059 277.099 357.294 274.785C357.826 274.405 358.31 274.028 358.76 273.655L361.492 289.746V289.743Z" fill="#5E4BD0"/>
        <path d="M333.946 301.431C331.037 302.185 328.023 302.871 324.957 303.483L322.225 287.403C325.291 286.791 328.305 286.104 331.213 285.35L333.946 301.431Z" fill="#5E4BD0"/>
        <path opacity="0.24" d="M364.382 283.701L362.156 270.691C361.541 271.804 360.537 272.942 359.146 274.106C358.674 274.502 358.171 274.89 357.647 275.267C354.438 277.562 349.981 279.786 344.4 281.872C340.475 283.346 336.09 284.712 331.367 285.932C328.473 286.683 325.44 287.377 322.344 287.992C321.227 288.216 320.118 288.422 319.016 288.619L321.756 303.48C322.779 303.293 323.806 303.099 324.841 302.894C327.911 302.282 330.924 301.595 333.796 300.849C338.451 299.651 342.795 298.304 346.705 296.837C352.193 294.781 356.563 292.605 359.693 290.366C360.21 289.996 360.683 289.634 361.103 289.28C363.528 287.257 364.66 285.328 364.382 283.701Z" fill="#B7ABFF"/>
        <path d="M358.52 282.115C358.164 279.118 357.44 278.551 354.43 278.909C357.44 278.555 358.01 277.834 357.65 274.838C358.006 277.834 358.73 278.402 361.74 278.043C358.73 278.398 358.16 279.118 358.52 282.115Z" fill="#B7ABFF"/>
        <path d="M355.252 285.809C355.034 283.988 354.596 283.645 352.767 283.861C354.596 283.645 354.941 283.208 354.723 281.387C354.941 283.208 355.379 283.552 357.208 283.335C355.379 283.552 355.034 283.988 355.252 285.809Z" fill="#B7ABFF"/>
        <path d="M360.082 286.429C359.921 285.085 359.599 284.832 358.25 284.992C359.599 284.832 359.854 284.511 359.693 283.167C359.854 284.511 360.176 284.764 361.526 284.604C360.176 284.764 359.921 285.085 360.082 286.429Z" fill="#B7ABFF"/>
        <path d="M275.205 294.061C275.538 291.937 275.156 291.415 273.023 291.079C275.156 291.411 275.684 291.03 276.018 288.907C275.684 291.03 276.067 291.556 278.199 291.889C276.067 291.556 275.538 291.937 275.205 294.061Z" fill="#B7ABFF"/>
    </g>
    <g clip-path="url(#clip1_0_1)">
        <path d="M237.7 337.5L233.28 336.57C232.34 336.4 231.33 336.52 230.38 337.02L125.15 391.99C122.29 393.48 120.5 396.44 120.5 399.66V431.2C120.5 433.4 122.02 435.09 123.9 435.59L124.09 435.64C124.17 435.66 124.25 435.68 124.33 435.69L129 436.63L131.66 432.87L234.58 379.09C236.08 378.31 237.01 376.76 237.01 375.07V341.04C237.01 340.7 236.96 340.37 236.89 340.05L237.69 337.51L237.7 337.5Z" fill="#2E365E" stroke="#2E365E" stroke-miterlimit="10"/>
        <path d="M130.15 392.99L235.38 338.02C238.4 336.44 242.01 338.63 242.01 342.04V376.07C242.01 377.76 241.07 379.31 239.58 380.09L132.13 436.21C129.11 437.79 125.5 435.6 125.5 432.19V400.65C125.5 397.43 127.29 394.47 130.15 392.98V392.99Z" fill="#F8BBEC" stroke="#2E365E" stroke-miterlimit="10"/>
        <path d="M166.26 399.24L166.24 393.29L167.46 392.65C168.48 392.12 168.72 392.42 168.72 393.2V396.74C168.73 397.52 168.49 398.08 167.48 398.61L166.26 399.25M167.7 390.55L164.2 392.38L164.23 402.28L167.73 400.45C169.96 399.28 170.78 397.61 170.77 396.29V391.53C170.75 390.19 169.93 389.39 167.7 390.55Z" fill="#2E365E"/>
        <path d="M174.52 393.1L175.55 388.41L176.59 392.02L174.52 393.11M176.9 385.74L174.19 387.16L171.46 398.51L173.57 397.4L174.05 395.22L177.07 393.64L177.56 395.31L179.68 394.2L176.88 385.74" fill="#2E365E"/>
        <path d="M186.18 380.88L179.3 384.48V386.46L181.72 385.19L181.75 393.12L183.78 392.05L183.76 384.13L186.18 382.86V380.88Z" fill="#2E365E"/>
        <path d="M188.89 385.58L189.92 380.89L190.96 384.5L188.89 385.58ZM191.27 378.21L188.56 379.63L185.83 390.98L187.94 389.87L188.42 387.69L191.44 386.11L191.93 387.78L194.05 386.67L191.25 378.21" fill="#2E365E"/>
        <path d="M197.75 380.97L197.84 378.78L199.77 377.77L199.68 379.96L197.75 380.97ZM201.33 373.25L199.93 373.98L199.83 376.31L197.9 377.32L198 374.99L196.6 375.72L196.5 378.05L194.85 378.91L194.79 380.37L196.44 379.51L196.35 381.7L194.74 382.54L194.68 384.01L196.31 383.16L196.21 385.55L197.6 384.82L197.71 382.43L199.64 381.42L199.53 383.81L200.93 383.08L201.03 380.69L202.6 379.87L202.66 378.4L201.07 379.23L201.16 377.04L202.71 376.23L202.77 374.77L201.22 375.58L201.32 373.25" fill="#2E365E"/>
        <path d="M207.97 369.78L206.21 370.7L203.65 373.66L204.5 374.99L206.03 373.28L206.05 380.4L208 379.38L207.97 369.78Z" fill="#2E365E"/>
        <path d="M143.28 395.37C137.34 397.23 132.42 404.22 132.3 410.98C132.18 417.74 136.9 421.72 142.84 419.86C148.78 418 153.71 411.01 153.83 404.25C153.95 397.49 149.23 393.51 143.28 395.37Z" fill="#2E365E"/>
    </g>
    <path d="M318.28 51.9837L441.905 116.275C462.246 126.85 475 147.797 475 170.66V321.613C475 344.332 462.392 365.162 442.255 375.795L319.126 440.842C301.178 450.313 279.698 450.4 261.691 441.016L138.095 376.754C117.754 366.179 105 345.233 105 322.369V171.387C105 148.668 117.608 127.838 137.745 117.205L260.845 52.158C278.793 42.6871 300.273 42.5999 318.28 51.9837Z" fill="white" fill-opacity="0.2" stroke="#231F20" stroke-width="2" stroke-miterlimit="10"/>
    <path d="M164.661 164.424L289.622 230.074L289.944 407.871" stroke="#3C2E8D" stroke-miterlimit="10"/>
    <path d="M415.693 164.424L289.622 230.074" stroke="#3C2E8D" stroke-miterlimit="10"/>
    <g clip-path="url(#clip2_0_1)">
        <path d="M532.602 276.579L427.236 221.861C424.263 220.325 420.939 220.953 418.691 222.861L411.762 227.444L416.023 238.053V276.579C416.023 281.674 418.879 286.35 423.42 288.723L519.844 338.765C520.757 339.254 521.717 339.579 522.653 339.835L524.315 343.976L532.977 338.532C533.352 338.323 533.703 338.09 534.054 337.858L534.147 337.811C537.612 335.392 540.023 331.413 540.023 326.621V288.723C540.023 283.628 537.167 278.952 532.626 276.579H532.602Z" fill="#2E365E"/>
        <path d="M409 233.26V281.232C409 286.327 411.856 291.003 416.397 293.376L512.821 343.418C521.998 348.187 532.977 341.557 532.977 331.274V293.376C532.977 288.281 530.121 283.605 525.58 281.232L420.213 226.514C415.11 223.885 409 227.561 409 233.26Z" fill="#F8BBEC" stroke="#2E365E" stroke-miterlimit="10"/>
        <path d="M433.322 274.066V264.97L435.265 265.924C436.857 266.715 437.232 267.552 437.232 268.762V274.183C437.232 275.369 436.834 275.834 435.242 275.043L433.346 274.09M435.663 263.132L430.185 260.387L430.139 275.532L435.617 278.277C439.105 280.022 440.392 278.766 440.392 276.742V269.46C440.415 267.413 439.128 264.877 435.663 263.132Z" fill="#2E365E"/>
        <path d="M446.244 277.765L447.906 272.252L449.498 279.394L446.268 277.765M450.037 270.321L445.8 268.18L441.469 281.162L444.77 282.814L445.542 280.255L450.271 282.628L451.02 285.955L454.321 287.606L450.037 270.298" fill="#2E365E"/>
        <path d="M464.504 277.603L453.759 272.205L453.735 275.23L457.528 277.137L457.504 289.258L460.665 290.84L460.711 278.719L464.504 280.627V277.603Z" fill="#2E365E"/>
        <path d="M468.671 289.049L470.333 283.535L471.925 290.677L468.694 289.049M472.463 281.604L468.226 279.487L463.872 292.469L467.173 294.12L467.945 291.561L472.674 293.934L473.423 297.261L476.724 298.913L472.44 281.604" fill="#2E365E"/>
        <path d="M482.529 296.075L482.693 292.864L485.69 294.376L485.549 297.587L482.553 296.075M488.195 289.956L486.017 288.863L485.83 292.259L482.834 290.747L482.998 287.35L480.821 286.257L480.657 289.654L478.058 288.351L477.941 290.491L480.54 291.794L480.376 295.004L477.848 293.725L477.73 295.865L480.282 297.145L480.118 300.635L482.295 301.728L482.483 298.238L485.479 299.75L485.292 303.24L487.469 304.334L487.656 300.844L490.114 302.077L490.208 299.937L487.726 298.68L487.89 295.493L490.301 296.703L490.395 294.562L487.984 293.353L488.171 289.956" fill="#2E365E"/>
        <path d="M496.271 293.795C495.03 293.167 493.532 292.631 492.221 292.352L492.619 295.307C493.532 295.516 495.1 296.121 496.107 296.633C497.301 297.238 497.769 297.75 497.769 298.541V298.959C497.769 300.518 497.535 300.541 495.451 302.03C494.164 302.938 493.906 303.077 492.385 303.985V306.776L500.929 311.08V308.219L496.598 306.032C497.23 305.636 497.862 305.171 498.869 304.357C500.789 302.821 500.812 302.403 500.812 300.262V299.657C500.812 297.191 499.524 295.446 496.271 293.795Z" fill="#2E365E"/>
    </g>
    <g clip-path="url(#clip3_0_1)">
        <path d="M45.4085 4.21458L1.27604 91.9409C-0.480247 95.8405 2.37185 100.265 6.65 100.265H95.3352C99.6284 100.265 102.48 95.8255 100.709 91.9259L56.1564 4.19958C54.0549 -0.404964 47.495 -0.389966 45.4085 4.21458Z" fill="white" stroke="#2E365E" stroke-miterlimit="10"/>
        <path d="M14.4783 87.9658L14.4777 87.9669C13.9455 89.0213 14.7143 90.266 15.8967 90.266H86.0583C87.2501 90.266 88.0105 89.0273 87.4784 87.9692L14.4783 87.9658ZM14.4783 87.9658L49.3921 18.5714C49.3924 18.5707 49.3927 18.5701 49.3931 18.5695C49.9882 17.4024 51.6446 17.4055 52.2312 18.5685L52.2325 18.571L87.4773 87.9669L14.4783 87.9658Z" fill="#FDFE01" stroke="#2E365E" stroke-width="2"/>
        <path d="M48.8158 66.6684L47.3447 58.1193V44.3206H54.4149V58.1193L52.9438 66.6684H48.8158ZM47.3447 78.0073V69.8631H54.4149V78.0073H47.3447Z" fill="#2E365E"/>
    </g>
    <defs>
        <filter id="filter0_d_0_1" x="164" y="226.051" width="103.629" height="72.8376" filterUnits="userSpaceOnUse" color-interpolation-filters="sRGB">
            <feFlood flood-opacity="0" result="BackgroundImageFix"/>
            <feColorMatrix in="SourceAlpha" type="matrix" values="0 0 0 0 0 0 0 0 0 0 0 0 0 0 0 0 0 0 127 0" result="hardAlpha"/>
            <feOffset dy="4"/>
            <feGaussianBlur stdDeviation="2"/>
            <feComposite in2="hardAlpha" operator="out"/>
            <feColorMatrix type="matrix" values="0 0 0 0 0 0 0 0 0 0 0 0 0 0 0 0 0 0 0.25 0"/>
            <feBlend mode="normal" in2="BackgroundImageFix" result="effect1_dropShadow_0_1"/>
            <feBlend mode="normal" in="SourceGraphic" in2="effect1_dropShadow_0_1" result="shape"/>
        </filter>
        <filter id="filter1_d_0_1" x="292.371" y="271.841" width="103.629" height="72.8339" filterUnits="userSpaceOnUse" color-interpolation-filters="sRGB">
            <feFlood flood-opacity="0" result="BackgroundImageFix"/>
            <feColorMatrix in="SourceAlpha" type="matrix" values="0 0 0 0 0 0 0 0 0 0 0 0 0 0 0 0 0 0 127 0" result="hardAlpha"/>
            <feOffset dy="4"/>
            <feGaussianBlur stdDeviation="2"/>
            <feComposite in2="hardAlpha" operator="out"/>
            <feColorMatrix type="matrix" values="0 0 0 0 0 0 0 0 0 0 0 0 0 0 0 0 0 0 0.25 0"/>
            <feBlend mode="normal" in2="BackgroundImageFix" result="effect1_dropShadow_0_1"/>
            <feBlend mode="normal" in="SourceGraphic" in2="effect1_dropShadow_0_1" result="shape"/>
        </filter>
        <filter id="filter2_d_0_1" x="264.393" y="203.174" width="103.629" height="72.834" filterUnits="userSpaceOnUse" color-interpolation-filters="sRGB">
            <feFlood flood-opacity="0" result="BackgroundImageFix"/>
            <feColorMatrix in="SourceAlpha" type="matrix" values="0 0 0 0 0 0 0 0 0 0 0 0 0 0 0 0 0 0 127 0" result="hardAlpha"/>
            <feOffset dy="4"/>
            <feGaussianBlur stdDeviation="2"/>
            <feComposite in2="hardAlpha" operator="out"/>
            <feColorMatrix type="matrix" values="0 0 0 0 0 0 0 0 0 0 0 0 0 0 0 0 0 0 0.25 0"/>
            <feBlend mode="normal" in2="BackgroundImageFix" result="effect1_dropShadow_0_1"/>
            <feBlend mode="normal" in="SourceGraphic" in2="effect1_dropShadow_0_1" result="shape"/>
        </filter>
        <filter id="filter3_d_0_1" x="266.444" y="188.094" width="103.629" height="72.8377" filterUnits="userSpaceOnUse" color-interpolation-filters="sRGB">
            <feFlood flood-opacity="0" result="BackgroundImageFix"/>
            <feColorMatrix in="SourceAlpha" type="matrix" values="0 0 0 0 0 0 0 0 0 0 0 0 0 0 0 0 0 0 127 0" result="hardAlpha"/>
            <feOffset dy="4"/>
            <feGaussianBlur stdDeviation="2"/>
            <feComposite in2="hardAlpha" operator="out"/>
            <feColorMatrix type="matrix" values="0 0 0 0 0 0 0 0 0 0 0 0 0 0 0 0 0 0 0.25 0"/>
            <feBlend mode="normal" in2="BackgroundImageFix" result="effect1_dropShadow_0_1"/>
            <feBlend mode="normal" in="SourceGraphic" in2="effect1_dropShadow_0_1" result="shape"/>
        </filter>
        <filter id="filter4_d_0_1" x="264.393" y="173.364" width="103.629" height="72.8339" filterUnits="userSpaceOnUse" color-interpolation-filters="sRGB">
            <feFlood flood-opacity="0" result="BackgroundImageFix"/>
            <feColorMatrix in="SourceAlpha" type="matrix" values="0 0 0 0 0 0 0 0 0 0 0 0 0 0 0 0 0 0 127 0" result="hardAlpha"/>
            <feOffset dy="4"/>
            <feGaussianBlur stdDeviation="2"/>
            <feComposite in2="hardAlpha" operator="out"/>
            <feColorMatrix type="matrix" values="0 0 0 0 0 0 0 0 0 0 0 0 0 0 0 0 0 0 0.25 0"/>
            <feBlend mode="normal" in2="BackgroundImageFix" result="effect1_dropShadow_0_1"/>
            <feBlend mode="normal" in="SourceGraphic" in2="effect1_dropShadow_0_1" result="shape"/>
        </filter>
        <filter id="filter5_d_0_1" x="265.168" y="157.216" width="103.629" height="72.8377" filterUnits="userSpaceOnUse" color-interpolation-filters="sRGB">
            <feFlood flood-opacity="0" result="BackgroundImageFix"/>
            <feColorMatrix in="SourceAlpha" type="matrix" values="0 0 0 0 0 0 0 0 0 0 0 0 0 0 0 0 0 0 127 0" result="hardAlpha"/>
            <feOffset dy="4"/>
            <feGaussianBlur stdDeviation="2"/>
            <feComposite in2="hardAlpha" operator="out"/>
            <feColorMatrix type="matrix" values="0 0 0 0 0 0 0 0 0 0 0 0 0 0 0 0 0 0 0.25 0"/>
            <feBlend mode="normal" in2="BackgroundImageFix" result="effect1_dropShadow_0_1"/>
            <feBlend mode="normal" in="SourceGraphic" in2="effect1_dropShadow_0_1" result="shape"/>
        </filter>
        <filter id="filter6_d_0_1" x="263.885" y="260.411" width="105.148" height="54.2815" filterUnits="userSpaceOnUse" color-interpolation-filters="sRGB">
            <feFlood flood-opacity="0" result="BackgroundImageFix"/>
            <feColorMatrix in="SourceAlpha" type="matrix" values="0 0 0 0 0 0 0 0 0 0 0 0 0 0 0 0 0 0 127 0" result="hardAlpha"/>
            <feOffset dy="4"/>
            <feGaussianBlur stdDeviation="2"/>
            <feComposite in2="hardAlpha" operator="out"/>
            <feColorMatrix type="matrix" values="0 0 0 0 0 0 0 0 0 0 0 0 0 0 0 0 0 0 0.25 0"/>
            <feBlend mode="normal" in2="BackgroundImageFix" result="effect1_dropShadow_0_1"/>
            <feBlend mode="normal" in="SourceGraphic" in2="effect1_dropShadow_0_1" result="shape"/>
        </filter>
        <clipPath id="clip0_0_1">
            <rect width="122.52" height="101.24" fill="white" transform="translate(307 29)"/>
        </clipPath>
        <clipPath id="clip1_0_1">
            <rect width="122.52" height="101.24" fill="white" transform="translate(120 336)"/>
        </clipPath>
        <clipPath id="clip2_0_1">
            <rect width="131" height="124" fill="white" transform="translate(409 221)"/>
        </clipPath>
        <clipPath id="clip3_0_1">
            <rect width="102" height="101" fill="white"/>
        </clipPath>
    </defs>
</svg>